{"title":"Espinoza Paz - Vamos Haciendo El Amor (Premios Juventud 2012)","uid":7480389,"size":105078054,"categoryP":"video","categoryS":"music_videos","magnet":"?xt=urn:btih:2d2de5653ced8c6694aae52cdc51f0ebcd0503ea&amp;dn=Espinoza+Paz+-+Vamos+Haciendo+El+Amor+%28Premios+Juventud+2012%29&amp;tr=udp%3A%2F%2Ftracker.openbittorrent.com%3A80&amp;tr=udp%3A%2F%2Fopen.demonii.com%3A1337&amp;tr=udp%3A%2F%2Ftracker.coppersurfer.tk%3A6969&amp;tr=udp%3A%2F%2Fexodus.desync.com%3A6969","seeders":1,"leechers":0,"uploader":"MusicVideos-HQ","files":1,"time":1343417274,"description":"General\n\nFormat                         : MPEG-4\nFormat profile                 : Base Media\nCodec ID                       : isom\nFile size                      : 100 MiB\nDuration                       : 3mn 34s\nOverall bit rate mode          : Variable\nOverall bit rate               : 3 916 Kbps\nEncoded date                   : UTC 2012-07-25 22:33:35\nTagged date                    : UTC 2012-07-25 22:33:35\n\nVideo\nID                             : 1\nFormat                         : AVC\nFormat/Info                    : Advanced Video Codec\nFormat profile                 : &lt;a class=&quot;__cf_email__&quot; href=&quot;/cdn-cgi/l/email-protection&quot; data-cfemail=&quot;8bc3e2ece3cbc7b8a5bb&quot;&gt;[email&amp;#160;protected]&lt;/a&gt;&lt;script cf-hash='f9e31' type=&quot;text/javascript&quot;&gt;\n/* &lt;![CDATA[ */!function(){try{var t=&quot;currentScript&quot;in document?document.currentScript:function(){for(var t=document.getElementsByTagName(&quot;script&quot;),e=t.length;e--;)if(t[e].getAttribute(&quot;cf-hash&quot;))return t[e]}();if(t&amp;&amp;t.previousSibling){var e,r,n,i,c=t.previousSibling,a=c.getAttribute(&quot;data-cfemail&quot;);if(a){for(e=&quot;&quot;,r=parseInt(a.substr(0,2),16),n=2;a.length-n;n+=2)i=parseInt(a.substr(n,2),16)^r,e+=String.fromCharCode(i);e=document.createTextNode(e),c.parentNode.replaceChild(e,c)}}}catch(u){}}();/* ]]&gt; */&lt;/script&gt;\nFormat settings, CABAC         : Yes\nFormat settings, ReFrames      : 2 frames\nCodec ID                       : avc1\nCodec ID/Info                  : Advanced Video Coding\nDuration                       : 3mn 34s\nBit rate                       : 3 718 Kbps\nMaximum bit rate               : 5 679 Kbps\nWidth                          : 640 pixels\nHeight                         : 480 pixels\nDisplay aspect ratio           : 4:3\nFrame rate mode                : Constant\nFrame rate                     : 29.970 fps\nColor space                    : YUV\nChroma subsampling             : 4:2:0\nBit depth                      : 8 bits\nScan type                      : Progressive\nBits/(Pixel*Frame)             : 0.404\nStream size                    : 95.1 MiB (95%)\n\n\nAudio\nID                             : 2\nFormat                         : AAC\nFormat/Info                    : Advanced Audio Codec\nFormat profile                 : LC\nCodec ID                       : 40\nDuration                       : 3mn 34s\nBit rate mode                  : Variable\nBit rate                       : 192 Kbps\nMaximum bit rate               : 218 Kbps\nChannel(s)                     : 2 channels\nChannel positions              : Front: L R\nSampling rate                  : 44.1 KHz\nCompression mode               : Lossy\nDelay relative to video        : -667ms\nStream size                    : 4.92 MiB (5%)","torrent":{"xt":"urn:btih:2d2de5653ced8c6694aae52cdc51f0ebcd0503ea","amp;dn":"Espinoza+Paz+-+Vamos+Haciendo+El+Amor+%28Premios+Juventud+2012%29","amp;tr":["udp%3A%2F%2Ftracker.openbittorrent.com%3A80","udp%3A%2F%2Fopen.demonii.com%3A1337","udp%3A%2F%2Ftracker.coppersurfer.tk%3A6969","udp%3A%2F%2Fexodus.desync.com%3A6969"],"infoHash":"2d2de5653ced8c6694aae52cdc51f0ebcd0503ea","infoHashBuffer":{"type":"Buffer","data":[45,45,229,101,60,237,140,102,148,170,229,44,220,81,240,235,205,5,3,234]},"announce":[],"urlList":[]}}